<svg xmlns="http://www.w3.org/2000/svg" width="256" height="256" viewBox="0 0 100 100"><rect width="100" height="100" rx="20" fill="#c7243c"></rect><path fill="#fff" d="M50.42 81.99L28.23 81.99L28.23 18.01L49.14 18.01Q59.56 18.01 64.81 22.31Q70.06 26.62 70.06 35.06L70.06 35.06Q70.06 39.54 67.51 42.99Q64.96 46.44 60.57 48.33L60.57 48.33Q65.75 49.78 68.76 53.85Q71.77 57.91 71.77 63.54L71.77 63.54Q71.77 72.15 66.19 77.07Q60.61 81.99 50.42 81.99L50.42 81.99ZM50.73 52.07L36.66 52.07L36.66 75.09L50.59 75.09Q56.48 75.09 59.89 72.04Q63.29 68.98 63.29 63.62L63.29 63.62Q63.29 52.07 50.73 52.07L50.73 52.07ZM36.66 24.95L36.66 45.30L49.41 45.30Q54.94 45.30 58.26 42.53Q61.58 39.76 61.58 35.01L61.58 35.01Q61.58 29.74 58.50 27.35Q55.43 24.95 49.14 24.95L49.14 24.95L36.66 24.95Z"></path></svg>